<svg width="" height="" viewBox="0 0 72 24" fill="none" xmlns="http://www.w3.org/2000/svg">
  <path fill-rule="evenodd" clip-rule="evenodd" d="M50.6234 18.4525C50.4459 18.4066 50.2811 18.329 50.1354 18.2261C49.9565 18.1003 49.8123 17.9407 49.7068 17.7609C49.6008 17.5812 49.5312 17.3775 49.5082 17.1598C49.4891 16.9827 49.5013 16.8011 49.5474 16.6237C49.5819 16.4903 49.6342 16.3641 49.7018 16.2478L56.9732 3.15926C57.3755 2.43508 58.2887 2.17417 59.0129 2.57649C59.7371 2.97881 59.998 3.89201 59.5957 4.61619L53.5491 15.5001H60.4998V7.00008C60.4998 6.17166 61.1714 5.50008 61.9998 5.50008C62.8282 5.50008 63.4998 6.17166 63.4998 7.00008V15.5001H66.9998C67.8282 15.5001 68.4998 16.1717 68.4998 17.0001C68.4998 17.8285 67.8282 18.5001 66.9998 18.5001H63.4998V22.0001C63.4998 22.8285 62.8282 23.5001 61.9998 23.5001C61.1714 23.5001 60.4998 22.8285 60.4998 22.0001V18.5001H51.027C50.8925 18.5026 50.7568 18.4871 50.6234 18.4525Z" fill="currentColor" fill-opacity="0.5"/>
  <path fill-rule="evenodd" clip-rule="evenodd" d="M49.6234 17.4525C49.4459 17.4066 49.2811 17.329 49.1354 17.2261C48.9565 17.1003 48.8123 16.9407 48.7068 16.7609C48.6008 16.5812 48.5312 16.3775 48.5082 16.1598C48.4891 15.9827 48.5013 15.8011 48.5474 15.6237C48.5819 15.4903 48.6342 15.3641 48.7018 15.2478L55.9732 2.15926C56.3755 1.43508 57.2887 1.17417 58.0129 1.57649C58.7371 1.97881 58.998 2.89201 58.5957 3.61619L52.5491 14.5001H59.4998V6.00008C59.4998 5.17166 60.1714 4.50008 60.9998 4.50008C61.8282 4.50008 62.4998 5.17166 62.4998 6.00008V14.5001H65.9998C66.8282 14.5001 67.4998 15.1717 67.4998 16.0001C67.4998 16.8285 66.8282 17.5001 65.9998 17.5001H62.4998V21.0001C62.4998 21.8285 61.8282 22.5001 60.9998 22.5001C60.1714 22.5001 59.4998 21.8285 59.4998 21.0001V17.5001H50.027C49.8925 17.5026 49.7568 17.4871 49.6234 17.4525Z" fill="currentColor"/>
  <path fill-rule="evenodd" clip-rule="evenodd" d="M29.5 12C29.5 8.41015 32.4101 5.5 36 5.5C39.5899 5.5 42.5 8.41015 42.5 12C42.5 15.5899 39.5899 18.5 36 18.5C32.4101 18.5 29.5 15.5899 29.5 12ZM36 2.5C30.7533 2.5 26.5 6.75329 26.5 12C26.5 17.2467 30.7533 21.5 36 21.5C38.0821 21.5 40.0077 20.8302 41.5732 19.6943L44.9395 23.0606C45.5253 23.6464 46.4751 23.6464 47.0609 23.0606C47.6466 22.4748 47.6466 21.5251 47.0609 20.9393L43.6945 17.5729C44.8303 16.0075 45.5 14.082 45.5 12C45.5 6.75329 41.2467 2.5 36 2.5Z" fill="currentColor" fill-opacity="0.5"/>
  <path fill-rule="evenodd" clip-rule="evenodd" d="M28.5 11C28.5 7.41015 31.4101 4.5 35 4.5C38.5899 4.5 41.5 7.41015 41.5 11C41.5 14.5899 38.5899 17.5 35 17.5C31.4101 17.5 28.5 14.5899 28.5 11ZM35 1.5C29.7533 1.5 25.5 5.75329 25.5 11C25.5 16.2467 29.7533 20.5 35 20.5C37.0821 20.5 39.0077 19.8302 40.5732 18.6943L43.9395 22.0606C44.5253 22.6464 45.4751 22.6464 46.0609 22.0606C46.6466 21.4748 46.6466 20.5251 46.0609 19.9393L42.6945 16.5729C43.8303 15.0075 44.5 13.082 44.5 11C44.5 5.75329 40.2467 1.5 35 1.5Z" fill="currentColor"/>
  <path fill-rule="evenodd" clip-rule="evenodd" d="M4.68877 16.2714C4.43065 16.736 4.43766 17.3025 4.70721 17.7606C4.97675 18.2187 5.46857 18.4999 6.00007 18.4999L15.5 18.4994V21.9999C15.5 22.8283 16.1716 23.4999 17 23.4999C17.8284 23.4999 18.5 22.8283 18.5 21.9999V18.4993L22.0008 18.4991C22.8292 18.4991 23.5008 17.8275 23.5007 16.9991C23.5007 16.1707 22.8291 15.4991 22.0007 15.4992L18.5 15.4993V6.99986C18.5 6.17143 17.8284 5.49986 17 5.49986C16.1716 5.49986 15.5 6.17143 15.5 6.99986V15.4994L8.54936 15.4997L14.5965 4.61522C14.9988 3.89105 14.7379 2.97785 14.0137 2.57552C13.2895 2.17319 12.3763 2.4341 11.974 3.15827L4.68877 16.2714Z" fill="currentColor" fill-opacity="0.5"/>
  <path fill-rule="evenodd" clip-rule="evenodd" d="M3.68877 15.2714C3.43065 15.736 3.43766 16.3025 3.70721 16.7606C3.97675 17.2187 4.46857 17.4999 5.00007 17.4999L14.5 17.4994V20.9999C14.5 21.8283 15.1716 22.4999 16 22.4999C16.8284 22.4999 17.5 21.8283 17.5 20.9999V17.4993L21.0008 17.4991C21.8292 17.4991 22.5008 16.8275 22.5007 15.9991C22.5007 15.1707 21.8291 14.4991 21.0007 14.4992L17.5 14.4993V5.99986C17.5 5.17143 16.8284 4.49986 16 4.49986C15.1716 4.49986 14.5 5.17143 14.5 5.99986V14.4994L7.54936 14.4997L13.5965 3.61522C13.9988 2.89105 13.7379 1.97785 13.0137 1.57552C12.2895 1.17319 11.3763 1.4341 10.974 2.15827L3.68877 15.2714Z" fill="currentColor"/>
  <path d="M31 12C31 12 32.5 8.5 36 8.5C39.5 8.5 41 12 41 12C41 12 39.5 15.5 36 15.5C32.5 15.5 31 12 31 12Z" stroke="currentColor" stroke-opacity="0.5" stroke-linecap="round" stroke-linejoin="round"/>
  <circle cx="36" cy="12" r="1.5" stroke="currentColor" stroke-opacity="1">
    <animate attributeName="cx" dur="6s" repeatCount="indefinite" values="36; 34; 34; 34; 34; 34; 34; 34; 34; 34; 34; 34; 34; 36; 38; 38; 38; 38; 38; 38; 38; 38; 38; 38; 38; 38; 36"  />
        <animate attributeName="r" dur="6s" repeatCount="indefinite" values="1.35; 1.25; 1.25; 1.25; 1.25; 1.25; 1.25; 1.25; 1.25; 1.25; 1.25; 1.25; 1.25; 1.35; 1.25; 1.25; 1.25; 1.25; 1.25; 1.25; 1.25; 1.25; 1.25; 1.25; 1.25; 1.25; 1.35"  />
  </circle>
</svg>
